# xmcd
# 
# Track frame offsets:
#     150
#     15087
#     35707
#     57645
#     73010
#     98930
#     122495
#     138545
#     156072
#     182102
#     208355
#     227205
#     257230
#     283960
#     313375
# 
# Disc length: 4538
# 
# Revision: 16
# Processed by: cddbd v1.5.2PL0 Copyright (c) Steve Scherf et al.
# Submitted via: fre:ac v1.1beta1pre2
# 
DISCID=eb11b80f
DTITLE=長渕剛 - Best 〜空〜 
DYEAR=2002
DGENRE=J-Pop
TTITLE0=順子
TTITLE1=友への手紙
TTITLE2=君は雨の日に
TTITLE3=白と黒
TTITLE4=愛してるのに
TTITLE5=碑
TTITLE6=男は女が必要さ
TTITLE7=僕だけのメリークリスマス
TTITLE8=ファイティングポーズ
TTITLE9=COME BACK TO MY HEART
TTITLE10=ろくなもんじゃねえ
TTITLE11=わがまま・友情 DREAM and MONEY
TTITLE12=花菱にて
TTITLE13=東京青春朝焼物語
TTITLE14=昭和
EXTD=YEAR: 2002
EXTT0=
EXTT1=
EXTT2=
EXTT3=
EXTT4=
EXTT5=
EXTT6=
EXTT7=
EXTT8=
EXTT9=
EXTT10=
EXTT11=
EXTT12=
EXTT13=
EXTT14=
PLAYORDER=
